{
	"asset":{
		"generator":"Khronos glTF Blender I/O v4.0.44",
		"version":"2.0"
	},
	"scene":0,
	"scenes":[
		{
			"name":"Scene",
			"nodes":[
				0
			]
		}
	],
	"nodes":[
		{
			"mesh":0,
			"name":"Globe"
		}
	],
	"materials":[
		{
			"doubleSided":true,
			"name":"Material",
			"pbrMetallicRoughness":{
				"baseColorFactor":[
					0.800000011920929,
					0.800000011920929,
					0.800000011920929,
					1
				],
				"metallicFactor":0,
				"roughnessFactor":0.5
			}
		}
	],
	"meshes":[
		{
			"name":"Cube",
			"primitives":[
				{
					"attributes":{
						"POSITION":0,
						"NORMAL":1,
						"TEXCOORD_0":2
					},
					"indices":3,
					"material":0
				}
			]
		}
	],
	"accessors":[
		{
			"bufferView":0,
			"componentType":5126,
			"count":6250,
			"max":[
				3.614413261413574,
				3.3672056198120117,
				2.276552677154541
			],
			"min":[
				-1.7285394668579102,
				0.08763682842254639,
				-1.765872597694397
			],
			"type":"VEC3"
		},
		{
			"bufferView":1,
			"componentType":5126,
			"count":6250,
			"type":"VEC3"
		},
		{
			"bufferView":2,
			"componentType":5126,
			"count":6250,
			"type":"VEC2"
		},
		{
			"bufferView":3,
			"componentType":5123,
			"count":33960,
			"type":"SCALAR"
		}
	],
	"bufferViews":[
		{
			"buffer":0,
			"byteLength":75000,
			"byteOffset":0,
			"target":34962
		},
		{
			"buffer":0,
			"byteLength":75000,
			"byteOffset":75000,
			"target":34962
		},
		{
			"buffer":0,
			"byteLength":50000,
			"byteOffset":150000,
			"target":34962
		},
		{
			"buffer":0,
			"byteLength":67920,
			"byteOffset":200000,
			"target":34963
		}
	],
	"buffers":[
		{
			"byteLength":267920,
			"uri":"glove.bin"
		}
	]
}
