{
	"asset":{
		"generator":"Khronos glTF Blender I/O v3.6.27",
		"version":"2.0"
	},
	"extensionsUsed":[
		"KHR_materials_transmission",
		"KHR_materials_ior"
	],
	"scene":0,
	"scenes":[
		{
			"name":"Scene",
			"nodes":[
				0
			]
		}
	],
	"nodes":[
		{
			"mesh":0,
			"name":"Meeple",
			"scale":[
				1.2297797203063965,
				1.9252028465270996,
				1.2297797203063965
			]
		}
	],
	"materials":[
		{
			"doubleSided":true,
			"extensions":{
				"KHR_materials_transmission":{
					"transmissionFactor":1
				},
				"KHR_materials_ior":{
					"ior":1.4500000476837158
				}
			},
			"name":"Material.001",
			"pbrMetallicRoughness":{
				"baseColorFactor":[
					0.5670563578605652,
					1,
					0,
					1
				],
				"metallicFactor":0,
				"roughnessFactor":0.539370059967041
			}
		}
	],
	"meshes":[
		{
			"name":"Icosphere.013",
			"primitives":[
				{
					"attributes":{
						"POSITION":0,
						"NORMAL":1,
						"TEXCOORD_0":2
					},
					"indices":3,
					"material":0
				}
			]
		}
	],
	"accessors":[
		{
			"bufferView":0,
			"componentType":5126,
			"count":2774,
			"max":[
				1,
				2.1015512943267822,
				1.3182283639907837
			],
			"min":[
				-0.9999999403953552,
				2.9802322387695312e-08,
				-1.3177752494812012
			],
			"type":"VEC3"
		},
		{
			"bufferView":1,
			"componentType":5126,
			"count":2774,
			"type":"VEC3"
		},
		{
			"bufferView":2,
			"componentType":5126,
			"count":2774,
			"type":"VEC2"
		},
		{
			"bufferView":3,
			"componentType":5123,
			"count":14274,
			"type":"SCALAR"
		}
	],
	"bufferViews":[
		{
			"buffer":0,
			"byteLength":33288,
			"byteOffset":0,
			"target":34962
		},
		{
			"buffer":0,
			"byteLength":33288,
			"byteOffset":33288,
			"target":34962
		},
		{
			"buffer":0,
			"byteLength":22192,
			"byteOffset":66576,
			"target":34962
		},
		{
			"buffer":0,
			"byteLength":28548,
			"byteOffset":88768,
			"target":34963
		}
	],
	"buffers":[
		{
			"byteLength":117316,
			"uri":"data:application/octet-stream;base64,"
		}
	]
}
