{
	"asset":{
		"generator":"Khronos glTF Blender I/O v4.0.44",
		"version":"2.0"
	},
	"scene":0,
	"scenes":[
		{
			"name":"Scene",
			"nodes":[
				0
			]
		}
	],
	"nodes":[
		{
			"mesh":0,
			"name":"Meeple"
		}
	],
	"materials":[
		{
			"doubleSided":true,
			"name":"Material.001",
			"pbrMetallicRoughness":{
				"baseColorFactor":[
					0.25854530930519104,
					0.25854530930519104,
					0.25854530930519104,
					1
				],
				"metallicFactor":0,
				"roughnessFactor":0.5538628101348877
			}
		}
	],
	"meshes":[
		{
			"name":"Icosphere.013",
			"primitives":[
				{
					"attributes":{
						"POSITION":0,
						"NORMAL":1,
						"TEXCOORD_0":2
					},
					"indices":3,
					"material":0
				}
			]
		}
	],
	"accessors":[
		{
			"bufferView":0,
			"componentType":5126,
			"count":2652,
			"max":[
				2.0477559566497803,
				4.045912742614746,
				1.621495008468628
			],
			"min":[
				-1.4837144613265991,
				-0.28046756982803345,
				-1.6214944124221802
			],
			"type":"VEC3"
		},
		{
			"bufferView":1,
			"componentType":5126,
			"count":2652,
			"type":"VEC3"
		},
		{
			"bufferView":2,
			"componentType":5126,
			"count":2652,
			"type":"VEC2"
		},
		{
			"bufferView":3,
			"componentType":5123,
			"count":11616,
			"type":"SCALAR"
		}
	],
	"bufferViews":[
		{
			"buffer":0,
			"byteLength":31824,
			"byteOffset":0,
			"target":34962
		},
		{
			"buffer":0,
			"byteLength":31824,
			"byteOffset":31824,
			"target":34962
		},
		{
			"buffer":0,
			"byteLength":21216,
			"byteOffset":63648,
			"target":34962
		},
		{
			"buffer":0,
			"byteLength":23232,
			"byteOffset":84864,
			"target":34963
		}
	],
	"buffers":[
		{
			"byteLength":108096,
			"uri":"meeple_web.bin"
		}
	]
}
