{
	"asset":{
		"generator":"Khronos glTF Blender I/O v4.0.44",
		"version":"2.0"
	},
	"scene":0,
	"scenes":[
		{
			"name":"Scene",
			"nodes":[
				0
			]
		}
	],
	"nodes":[
		{
			"mesh":0,
			"name":"Meeple",
			"scale":[
				1.2297797203063965,
				1.9252028465270996,
				1.2297797203063965
			],
			"translation":[
				0,
				0.41173481941223145,
				0
			]
		}
	],
	"meshes":[
		{
			"name":"Icosphere.013",
			"primitives":[
				{
					"attributes":{
						"POSITION":0,
						"NORMAL":1,
						"TEXCOORD_0":2
					},
					"indices":3
				},
				{
					"attributes":{
						"POSITION":4,
						"NORMAL":5,
						"TEXCOORD_0":6
					},
					"indices":7
				}
			]
		}
	],
	"accessors":[
		{
			"bufferView":0,
			"componentType":5126,
			"count":2448,
			"max":[
				1,
				1.8876855373382568,
				1.318524718284607
			],
			"min":[
				-0.9999999403953552,
				-0.2138655185699463,
				-1.3185242414474487
			],
			"type":"VEC3"
		},
		{
			"bufferView":1,
			"componentType":5126,
			"count":2448,
			"type":"VEC3"
		},
		{
			"bufferView":2,
			"componentType":5126,
			"count":2448,
			"type":"VEC2"
		},
		{
			"bufferView":3,
			"componentType":5123,
			"count":11028,
			"type":"SCALAR"
		},
		{
			"bufferView":4,
			"componentType":5126,
			"count":18,
			"max":[
				2.000102996826172,
				-0.18779157102108002,
				0.47084107995033264
			],
			"min":[
				1.486611008644104,
				-0.21386562287807465,
				-0.47084107995033264
			],
			"type":"VEC3"
		},
		{
			"bufferView":5,
			"componentType":5126,
			"count":18,
			"type":"VEC3"
		},
		{
			"bufferView":6,
			"componentType":5126,
			"count":18,
			"type":"VEC2"
		},
		{
			"bufferView":7,
			"componentType":5123,
			"count":24,
			"type":"SCALAR"
		}
	],
	"bufferViews":[
		{
			"buffer":0,
			"byteLength":29376,
			"byteOffset":0,
			"target":34962
		},
		{
			"buffer":0,
			"byteLength":29376,
			"byteOffset":29376,
			"target":34962
		},
		{
			"buffer":0,
			"byteLength":19584,
			"byteOffset":58752,
			"target":34962
		},
		{
			"buffer":0,
			"byteLength":22056,
			"byteOffset":78336,
			"target":34963
		},
		{
			"buffer":0,
			"byteLength":216,
			"byteOffset":100392,
			"target":34962
		},
		{
			"buffer":0,
			"byteLength":216,
			"byteOffset":100608,
			"target":34962
		},
		{
			"buffer":0,
			"byteLength":144,
			"byteOffset":100824,
			"target":34962
		},
		{
			"buffer":0,
			"byteLength":48,
			"byteOffset":100968,
			"target":34963
		}
	],
	"buffers":[
		{
			"byteLength":101016,
			"uri":"meeple_web3.bin"
		}
	]
}
