{
	"asset":{
		"generator":"Khronos glTF Blender I/O v4.0.44",
		"version":"2.0"
	},
	"scene":0,
	"scenes":[
		{
			"name":"Scene",
			"nodes":[
				0
			]
		}
	],
	"nodes":[
		{
			"mesh":0,
			"name":"Meeple"
		}
	],
	"meshes":[
		{
			"name":"Icosphere.013",
			"primitives":[
				{
					"attributes":{
						"POSITION":0,
						"NORMAL":1,
						"TEXCOORD_0":2
					},
					"indices":3
				},
				{
					"attributes":{
						"POSITION":4,
						"NORMAL":5,
						"TEXCOORD_0":6
					},
					"indices":7
				}
			]
		}
	],
	"accessors":[
		{
			"bufferView":0,
			"componentType":5126,
			"count":2448,
			"max":[
				1.2297797203063965,
				4.045912742614746,
				1.621495008468628
			],
			"min":[
				-1.229779601097107,
				3.2782554626464844e-07,
				-1.6214944124221802
			],
			"type":"VEC3"
		},
		{
			"bufferView":1,
			"componentType":5126,
			"count":2448,
			"type":"VEC3"
		},
		{
			"bufferView":2,
			"componentType":5126,
			"count":2448,
			"type":"VEC2"
		},
		{
			"bufferView":3,
			"componentType":5123,
			"count":11028,
			"type":"SCALAR"
		},
		{
			"bufferView":4,
			"componentType":5126,
			"count":18,
			"max":[
				2.459686040878296,
				0.05019795894622803,
				0.5790308117866516
			],
			"min":[
				1.8282040357589722,
				1.1920928955078125e-07,
				-0.5790308117866516
			],
			"type":"VEC3"
		},
		{
			"bufferView":5,
			"componentType":5126,
			"count":18,
			"type":"VEC3"
		},
		{
			"bufferView":6,
			"componentType":5126,
			"count":18,
			"type":"VEC2"
		},
		{
			"bufferView":7,
			"componentType":5123,
			"count":24,
			"type":"SCALAR"
		}
	],
	"bufferViews":[
		{
			"buffer":0,
			"byteLength":29376,
			"byteOffset":0,
			"target":34962
		},
		{
			"buffer":0,
			"byteLength":29376,
			"byteOffset":29376,
			"target":34962
		},
		{
			"buffer":0,
			"byteLength":19584,
			"byteOffset":58752,
			"target":34962
		},
		{
			"buffer":0,
			"byteLength":22056,
			"byteOffset":78336,
			"target":34963
		},
		{
			"buffer":0,
			"byteLength":216,
			"byteOffset":100392,
			"target":34962
		},
		{
			"buffer":0,
			"byteLength":216,
			"byteOffset":100608,
			"target":34962
		},
		{
			"buffer":0,
			"byteLength":144,
			"byteOffset":100824,
			"target":34962
		},
		{
			"buffer":0,
			"byteLength":48,
			"byteOffset":100968,
			"target":34963
		}
	],
	"buffers":[
		{
			"byteLength":101016,
			"uri":"meeple_web4.bin"
		}
	]
}
