{
	"asset":{
		"generator":"Khronos glTF Blender I/O v3.6.27",
		"version":"2.0"
	},
	"extensionsUsed":[
		"KHR_materials_specular",
		"KHR_materials_ior"
	],
	"scene":0,
	"scenes":[
		{
			"name":"Scene",
			"nodes":[
				0
			]
		}
	],
	"nodes":[
		{
			"mesh":0,
			"name":"Person",
			"rotation":[
				0.7071068286895752,
				0,
				0,
				0.7071068286895752
			]
		}
	],
	"materials":[
		{
			"doubleSided":true,
			"extensions":{
				"KHR_materials_specular":{
					"specularColorFactor":[
						1.897086119821904,
						1.897086119821904,
						1.897086119821904
					]
				},
				"KHR_materials_ior":{
					"ior":1.4500000476837158
				}
			},
			"name":"None",
			"pbrMetallicRoughness":{
				"baseColorFactor":[
					0.800000011920929,
					0.800000011920929,
					0.800000011920929,
					1
				],
				"metallicFactor":0,
				"roughnessFactor":0.2928932309150696
			}
		}
	],
	"meshes":[
		{
			"name":"Icosphere.005",
			"primitives":[
				{
					"attributes":{
						"POSITION":0,
						"NORMAL":1,
						"TEXCOORD_0":2
					},
					"indices":3,
					"material":0
				}
			]
		}
	],
	"accessors":[
		{
			"bufferView":0,
			"componentType":5126,
			"count":12607,
			"max":[
				2.270102024078369,
				1.6167900562286377,
				2.06699800491333
			],
			"min":[
				-1.6167900562286377,
				-1.6167900562286377,
				-2.497879981994629
			],
			"type":"VEC3"
		},
		{
			"bufferView":1,
			"componentType":5126,
			"count":12607,
			"type":"VEC3"
		},
		{
			"bufferView":2,
			"componentType":5126,
			"count":12607,
			"type":"VEC2"
		},
		{
			"bufferView":3,
			"componentType":5123,
			"count":66168,
			"type":"SCALAR"
		}
	],
	"bufferViews":[
		{
			"buffer":0,
			"byteLength":151284,
			"byteOffset":0,
			"target":34962
		},
		{
			"buffer":0,
			"byteLength":151284,
			"byteOffset":151284,
			"target":34962
		},
		{
			"buffer":0,
			"byteLength":100856,
			"byteOffset":302568,
			"target":34962
		},
		{
			"buffer":0,
			"byteLength":132336,
			"byteOffset":403424,
			"target":34963
		}
	],
	"buffers":[
		{
			"byteLength":535760,
			"uri":"data:application/octet-stream;base64,"
		}
	]
}
