<?xml version="1.0" encoding="UTF-8" standalone="no"?>
<!-- Created with Inkscape (http://www.inkscape.org/) -->

<svg
   width="93.307297mm"
   height="93.307297mm"
   viewBox="0 0 93.307297 93.307297"
   version="1.1"
   id="svg1"
   xml:space="preserve"
   inkscape:version="1.3 (0e150ed6c4, 2023-07-21)"
   sodipodi:docname="web-tables.svg"
   xmlns:inkscape="http://www.inkscape.org/namespaces/inkscape"
   xmlns:sodipodi="http://sodipodi.sourceforge.net/DTD/sodipodi-0.dtd"
   xmlns="http://www.w3.org/2000/svg"
   xmlns:svg="http://www.w3.org/2000/svg"><sodipodi:namedview
     id="namedview1"
     pagecolor="#ffffff"
     bordercolor="#000000"
     borderopacity="0.25"
     inkscape:showpageshadow="2"
     inkscape:pageopacity="0.0"
     inkscape:pagecheckerboard="0"
     inkscape:deskcolor="#d1d1d1"
     inkscape:document-units="mm"
     inkscape:zoom="0.19523935"
     inkscape:cx="-64.02398"
     inkscape:cy="297.07127"
     inkscape:window-width="1920"
     inkscape:window-height="1003"
     inkscape:window-x="1920"
     inkscape:window-y="0"
     inkscape:window-maximized="1"
     inkscape:current-layer="layer1" /><defs
     id="defs1" /><g
     inkscape:label="Layer 1"
     inkscape:groupmode="layer"
     id="layer1"
     transform="translate(-58.346352,-101.84635)"><path
       d="m 116.10248,107.1578 h 6.71773 c 4.92635,0 8.95714,4.03059 8.95714,8.95696 v 28.66278 L 116.10248,107.1578 m 24.18413,7.1656 5.82212,2.68712 c 4.4785,1.79136 6.71773,7.16561 4.92638,11.64426 l -10.7485,26.42338 V 114.3234 m -9.40503,52.39902 -22.3926,-53.7425 c -1.34398,-3.58289 -4.47865,-5.37424 -8.06137,-5.37424 -1.343976,0 -2.239416,0.44687 -3.582886,0.89541 l -33.141262,13.43564 c -4.478502,1.79153 -6.717732,6.71788 -4.478502,11.19638 l 22.392772,53.74251 c 1.343984,3.58289 4.478481,5.37424 8.061369,5.37424 1.343984,0 2.239253,0 3.582733,-0.89544 L 126.4031,177.91881 c 3.58289,-1.34399 5.37425,-4.47848 5.37425,-8.06137 -0.44856,-0.89544 -0.44856,-2.23925 -0.89542,-3.13485 m -29.55838,-2.23942 -14.331225,-10.74849 1.791357,-17.91412 14.331378,10.74851 -1.79151,17.9141"
       id="path1"
       style="fill:#ff5454;fill-opacity:1;stroke-width:0.264582" /></g></svg>
